<svg xmlns="http://www.w3.org/2000/svg" version="1.1" xmlns:xlink="http://www.w3.org/1999/xlink" width="512" height="512" x="0" y="0" viewBox="0 0 64 64" style="enable-background:new 0 0 512 512" xml:space="preserve"><g><g fill="#000"><path fill-rule="evenodd" d="M23 24a2 2 0 1 1-4 0v-4h-2c-2.015 0-3.708 1.468-3.994 3.426L9.045 53.413l-.004.023C8.697 55.832 10.568 58 13.037 58h27.244a2 2 0 0 1 0 4H13.037c-4.873 0-8.643-4.292-7.957-9.121l3.962-29.99.003-.022C9.613 18.917 13.01 16 17 16h2v-2c0-6.627 5.373-12 12-12s12 5.373 12 12v2h2c3.987 0 7.383 2.913 7.954 6.859L54.977 36.2a2 2 0 0 1-3.954.6L48.998 23.45l-.002-.015C48.714 21.473 47.018 20 45 20h-2v4a2 2 0 1 1-4 0v-4H23zm0-8h16v-2a8 8 0 1 0-16 0z" clip-rule="evenodd" fill="#000000" opacity="1" data-original="#000000"></path><path d="M51 42a2 2 0 0 1 2 2v6h6a2 2 0 1 1 0 4h-6v6a2 2 0 1 1-4 0v-6h-6a2 2 0 1 1 0-4h6v-6a2 2 0 0 1 2-2z" fill="#000000" opacity="1" data-original="#000000"></path></g></g></svg>