<svg id="instagram-logo_1_" data-name="instagram-logo (1)" xmlns="http://www.w3.org/2000/svg" width="17.86" height="17.86" viewBox="0 0 17.86 17.86">
  <path id="Path_8" data-name="Path 8" d="M12.931,0h-8A4.934,4.934,0,0,0,0,4.929v8A4.934,4.934,0,0,0,4.929,17.86h8a4.934,4.934,0,0,0,4.929-4.929v-8A4.934,4.934,0,0,0,12.931,0Zm3.344,12.931a3.348,3.348,0,0,1-3.344,3.344h-8a3.348,3.348,0,0,1-3.344-3.344v-8A3.348,3.348,0,0,1,4.929,1.585h8a3.348,3.348,0,0,1,3.344,3.344v8Z" transform="translate(0 0)" fill="#1c1c1c"/>
  <path id="Path_9" data-name="Path 9" d="M45.57,40.97a4.6,4.6,0,1,0,4.6,4.6A4.607,4.607,0,0,0,45.57,40.97Zm0,7.619a3.017,3.017,0,1,1,3.017-3.017A3.021,3.021,0,0,1,45.57,48.589Z" transform="translate(-36.64 -36.642)" fill="#1c1c1c"/>
  <path id="Path_10" data-name="Path 10" d="M120.083,28.251a1.161,1.161,0,1,0,.822.34A1.167,1.167,0,0,0,120.083,28.251Z" transform="translate(-106.358 -25.267)" fill="#1c1c1c"/>
</svg>
