<svg xmlns="http://www.w3.org/2000/svg" width="36" height="24" viewBox="0 0 36 24">
  <g id="mastercard-color_large" transform="translate(0.219 0.282)">
    <rect id="card_bg" width="36" height="24" rx="4" transform="translate(-0.219 -0.282)" fill="#f2f0ec"/>
    <g id="mastercard" transform="translate(3.918 2.406)">
      <g id="Group" transform="translate(0 0)" opacity="0">
        <rect id="Rectangle" width="29.11" height="19.251" fill="#fff"/>
      </g>
      <rect id="Rectangle-2" data-name="Rectangle" width="7.678" height="12.543" transform="translate(10.716 3.354)" fill="#f26122"/>
      <path id="Path" d="M9.9,7.979a7.956,7.956,0,0,1,3.008-6.272,7.979,7.979,0,1,0,0,12.543A7.956,7.956,0,0,1,9.9,7.979Z" transform="translate(1.64 1.647)" fill="#ea1d25"/>
      <path id="Shape" d="M.376.309H.324V0H.4L.5.218.587,0H.662V.308H.609V.075l-.083.2H.466l-.09-.2V.309ZM.15.309H.106V.053H0V0H.263V.053H.15V.308Z" transform="translate(26.538 14.258)" fill="#f69e1e"/>
      <path id="Path-2" data-name="Path" d="M12.9,7.973A7.979,7.979,0,0,1,0,14.245a7.978,7.978,0,0,0,1.339-11.2A7.821,7.821,0,0,0,0,1.7,7.979,7.979,0,0,1,12.9,7.973Z" transform="translate(14.551 1.652)" fill="#f69e1e"/>
    </g>
  </g>
</svg>
