<svg xmlns="http://www.w3.org/2000/svg" width="36" height="24" viewBox="0 0 36 24">
  <g id="paypal-color-large" transform="translate(-0.191 0.282)">
    <rect id="card_bg" width="36" height="24" rx="4" transform="translate(0.191 -0.282)" fill="#fff"/>
    <path id="card_bg-2" d="M33,24H3a3,3,0,0,1-3-3V3A3,3,0,0,1,3,0H33a3,3,0,0,1,3,3V21A3,3,0,0,1,33,24ZM3,1.5A1.5,1.5,0,0,0,1.5,3V21A1.5,1.5,0,0,0,3,22.5H33A1.5,1.5,0,0,0,34.5,21V3A1.5,1.5,0,0,0,33,1.5Z" transform="translate(0.191 -0.282)" fill="#cccccb"/>
    <g id="paypal" transform="translate(12.024 4.512)">
      <path id="Path" d="M3.091,14.017l.263-1.654H0L1.925.135a.158.158,0,0,1,.053-.1A.18.18,0,0,1,2.083,0h4.67A4.17,4.17,0,0,1,9.941.963a2.068,2.068,0,0,1,.5.955,3.324,3.324,0,0,1,0,1.316V3.61l.263.15a1.872,1.872,0,0,1,.534.4,1.948,1.948,0,0,1,.429.97,4.309,4.309,0,0,1-.06,1.4,4.873,4.873,0,0,1-.579,1.587,3.234,3.234,0,0,1-.91,1A3.805,3.805,0,0,1,8.9,9.663a5.948,5.948,0,0,1-1.5.18H7.024a1.105,1.105,0,0,0-.707.256,1.068,1.068,0,0,0-.368.662v.15L5.49,13.829v.113a.113.113,0,0,1,0,.06H5.444Z" transform="translate(0.531 0.511)" fill="#253d80"/>
      <path id="Path-2" data-name="Path" d="M8.4,0,8.359.278c-.617,3.158-2.73,4.256-5.422,4.256H1.568A.669.669,0,0,0,.906,5.1L.207,9.55,0,10.814a.353.353,0,0,0,.346.406H2.786a.587.587,0,0,0,.579-.5V10.6l.459-2.91V7.535a.579.579,0,0,1,.572-.5h.4c2.354,0,4.2-.955,4.738-3.76A3.188,3.188,0,0,0,9.05.474,2.429,2.429,0,0,0,8.4,0Z" transform="translate(3.084 3.82)" fill="#189bd7"/>
      <path id="Path-3" data-name="Path" d="M6.8.219,6.512.143,6.2.083A7.565,7.565,0,0,0,4.993,0H1.324a.541.541,0,0,0-.248.053A.572.572,0,0,0,.752.489L0,5.43v.143a.669.669,0,0,1,.662-.564H2.03c2.692,0,4.805-1.1,5.422-4.256L7.5.474a3.369,3.369,0,0,0-.5-.211Z" transform="translate(4.043 3.346)" fill="#242e65"/>
      <path id="Path-4" data-name="Path" d="M4.795,3.835A.572.572,0,0,1,5.118,3.4a.541.541,0,0,1,.248-.053h3.67a7.565,7.565,0,0,1,1.2.083l.316.06.286.075.143.045a3.369,3.369,0,0,1,.5.211,3.008,3.008,0,0,0-.6-2.685A4.786,4.786,0,0,0,7.291,0H2.614a.669.669,0,0,0-.662.564L0,12.9a.406.406,0,0,0,.4.466H3.291l.752-4.595Z" transform="translate(0 0)" fill="#253d80"/>
    </g>
  </g>
</svg>
