<svg xmlns="http://www.w3.org/2000/svg" width="36" height="24" viewBox="0 0 36 24">
  <g id="visa-color_large" transform="translate(0 0.282)">
    <rect id="card_bg" width="36" height="24" rx="4" transform="translate(0 -0.282)" fill="#2a2a6c"/>
    <path id="visa-logo" d="M12.794,7.159a5.36,5.36,0,0,1-1.958-.369l.324-1.5a3.774,3.774,0,0,0,1.787.452h.048c.535-.008,1.075-.222,1.075-.684.007-.295-.245-.529-.933-.865S11.566,3.3,11.566,2.3C11.566.946,12.8,0,14.573,0a4.823,4.823,0,0,1,1.685.309l-.315,1.5A3.393,3.393,0,0,0,14.5,1.487c-.11,0-.222.005-.331.016-.519.069-.752.341-.752.579,0,.291.373.487.844.734.748.392,1.68.88,1.675,2.026l.038-.06c-.007,1.444-1.239,2.376-3.136,2.376Zm4.983-.06H15.882l2.7-6.444a.817.817,0,0,1,.752-.512h1.5L22.3,7.1H20.627l-.218-1.038H18.146L17.777,7.1Zm1.79-5.076-.948,2.609h1.5ZM9.55,7.076H7.745L9.25.12h1.8L9.55,7.076ZM5.6,7.053H3.64L2.2,1.5A.756.756,0,0,0,1.775.887,7.458,7.458,0,0,0,0,.3L.045.1h3.06A.841.841,0,0,1,3.94.8l.752,4.023L6.565.1H8.52L5.6,7.053Z" transform="translate(6.888 8.445)" fill="#fff"/>
  </g>
</svg>
