<svg xmlns="http://www.w3.org/2000/svg" version="1.1" xmlns:xlink="http://www.w3.org/1999/xlink" width="512" height="512" x="0" y="0" viewBox="0 0 8.467 8.467" style="enable-background:new 0 0 512 512" xml:space="preserve" class=""><g><path fill-rule="evenodd" d="M4.011.357c-.629 0-1.14.512-1.14 1.14v.355a.172.172 0 1 0 .344 0v-.354A.79.79 0 0 1 4.01.702h.445a.79.79 0 0 1 .796.796v.354a.172.172 0 1 0 .344 0v-.354c0-.629-.512-1.14-1.14-1.14zM1.3 2.21c-.164 0-.268.02-.34.092-.087.105-.085.239-.1.351C.726 4.08.58 5.546.452 6.953c-.049.384-.008.693.2.897.206.203.518.26.929.26h5.295c.416 0 .731-.056.94-.26.208-.204.25-.516.2-.9l-.412-4.33c-.017-.18-.022-.246-.11-.335-.108-.082-.237-.07-.349-.076zm0 .344h5.845c.113 0 .11 0 .118.1l.412 4.331c.03.255.026.494-.1.62-.1.098-.318.162-.7.162H1.58c-.376 0-.588-.065-.687-.163-.1-.097-.145-.269-.102-.607.14-1.435.275-2.874.412-4.31.014-.132.013-.133.096-.133zm1.744.451a.172.172 0 0 0-.172.172v.619c0 .629.512 1.139 1.14 1.139h.444c.629 0 1.14-.51 1.14-1.14v-.618a.172.172 0 0 0-.343 0v.619a.79.79 0 0 1-.797.795h-.443a.79.79 0 0 1-.797-.795v-.62a.172.172 0 0 0-.172-.17z" fill="#ffffff" opacity="1" data-original="#000000" class=""></path></g></svg>